<?xml version="1.0" encoding="UTF-8"?>
<!DOCTYPE svg PUBLIC "-//W3C//DTD SVG 1.1//EN" "http://www.w3.org/Graphics/SVG/1.1/DTD/svg11.dtd">
<!-- Creator: CorelDRAW 2020 (64-Bit) -->
<svg xmlns="http://www.w3.org/2000/svg" xml:space="preserve" width="13.3971mm" height="11.4835mm" version="1.1" shape-rendering="geometricPrecision" text-rendering="geometricPrecision" image-rendering="optimizeQuality" fill-rule="evenodd" clip-rule="evenodd"
viewBox="0 0 191.55 164.19"
 xmlns:xlink="http://www.w3.org/1999/xlink"
 xmlns:xodm="http://www.corel.com/coreldraw/odm/2003">
 <g id="Слой_x0020_1">
  <metadata id="CorelCorpID_0Corel-Layer"/>
  <g id="_2477676828864">
   <path fill="#F25A18" d="M26.74 70.88l47.34 61.99c72.83,-74.48 135.7,-146.52 112.6,-130.65l-113.65 78.08c-15.69,-5.03 -27.9,-15.02 -46.3,-9.41z"/>
   <g>
    <path fill="#F25A18" fill-rule="nonzero" d="M156.93 85.72l-10.46 0 0 0 -0.09 -3.51 -0.26 -3.45 -0.43 -3.4 -0.6 -3.35 -0.76 -3.29 -0.92 -3.23 -1.07 -3.16 -1.22 -3.09 -1.36 -3.01 -1.5 -2.93 -1.64 -2.85 -1.77 -2.76 -1.9 -2.67 -2.02 -2.57 -2.14 -2.47 -2.25 -2.36 -2.36 -2.25 -2.47 -2.14 -2.57 -2.02 -2.67 -1.9 -2.76 -1.77 -2.85 -1.64 -2.93 -1.5 -3.01 -1.36 -3.09 -1.22 -3.16 -1.07 -3.23 -0.92 -3.29 -0.76 -3.35 -0.6 -3.4 -0.43 -3.45 -0.26 -3.51 -0.09 0 -10.46 4.03 0.1 3.98 0.3 3.93 0.5 3.86 0.69 3.8 0.88 3.73 1.06 3.65 1.23 3.57 1.41 3.48 1.57 3.38 1.73 3.29 1.89 3.18 2.04 3.08 2.19 2.96 2.33 2.85 2.46 2.72 2.6 2.6 2.72 2.46 2.85 2.33 2.96 2.19 3.08 2.04 3.18 1.89 3.29 1.73 3.38 1.57 3.48 1.41 3.57 1.23 3.65 1.06 3.73 0.88 3.8 0.69 3.86 0.5 3.93 0.3 3.98 0.1 4.03 0 0zm-78.47 78.47l0 -10.46 0 0 3.51 -0.09 3.45 -0.26 3.4 -0.43 3.35 -0.6 3.29 -0.76 3.23 -0.92 3.16 -1.07 3.09 -1.22 3.01 -1.36 2.93 -1.5 2.85 -1.64 2.76 -1.77 2.67 -1.9 2.57 -2.02 2.47 -2.14 2.36 -2.25 2.25 -2.36 2.14 -2.47 2.02 -2.57 1.9 -2.67 1.77 -2.76 1.64 -2.85 1.5 -2.93 1.36 -3.01 1.22 -3.09 1.07 -3.16 0.92 -3.23 0.76 -3.29 0.6 -3.35 0.43 -3.4 0.26 -3.45 0.09 -3.51 10.46 0 -0.1 4.03 -0.3 3.98 -0.5 3.93 -0.69 3.86 -0.88 3.8 -1.06 3.73 -1.23 3.65 -1.41 3.57 -1.57 3.48 -1.73 3.39 -1.89 3.29 -2.04 3.18 -2.19 3.08 -2.33 2.96 -2.46 2.85 -2.6 2.72 -2.72 2.6 -2.85 2.46 -2.96 2.33 -3.08 2.19 -3.18 2.04 -3.29 1.89 -3.38 1.73 -3.48 1.57 -3.57 1.41 -3.65 1.23 -3.73 1.06 -3.8 0.88 -3.86 0.69 -3.93 0.5 -3.98 0.3 -4.03 0.1 0 0zm-78.47 -78.47l10.46 0 0 0 0.09 3.51 0.26 3.45 0.43 3.4 0.6 3.35 0.76 3.29 0.92 3.23 1.07 3.16 1.22 3.09 1.36 3.01 1.5 2.93 1.64 2.85 1.77 2.76 1.9 2.67 2.02 2.57 2.14 2.47 2.25 2.36 2.36 2.25 2.47 2.14 2.57 2.02 2.67 1.9 2.76 1.77 2.85 1.64 2.93 1.5 3.01 1.36 3.09 1.22 3.16 1.07 3.23 0.92 3.29 0.76 3.35 0.6 3.4 0.43 3.45 0.26 3.51 0.09 0 10.46 -4.03 -0.1 -3.98 -0.3 -3.93 -0.5 -3.86 -0.69 -3.8 -0.88 -3.73 -1.06 -3.65 -1.23 -3.57 -1.41 -3.48 -1.57 -3.39 -1.73 -3.29 -1.89 -3.18 -2.04 -3.08 -2.19 -2.96 -2.33 -2.85 -2.46 -2.72 -2.6 -2.6 -2.72 -2.46 -2.85 -2.33 -2.96 -2.19 -3.08 -2.04 -3.18 -1.89 -3.29 -1.73 -3.39 -1.57 -3.48 -1.41 -3.57 -1.23 -3.65 -1.06 -3.73 -0.88 -3.8 -0.69 -3.86 -0.5 -3.93 -0.3 -3.98 -0.1 -4.03 0 0zm78.47 -78.47l0 10.46 0 0 -3.51 0.09 -3.45 0.26 -3.4 0.43 -3.35 0.6 -3.29 0.76 -3.23 0.92 -3.16 1.07 -3.09 1.22 -3.01 1.36 -2.93 1.5 -2.85 1.64 -2.76 1.77 -2.67 1.9 -2.57 2.02 -2.47 2.14 -2.36 2.25 -2.25 2.36 -2.14 2.47 -2.02 2.57 -1.9 2.67 -1.77 2.76 -1.64 2.85 -1.5 2.93 -1.36 3.01 -1.22 3.09 -1.07 3.16 -0.92 3.23 -0.76 3.29 -0.6 3.35 -0.43 3.4 -0.26 3.45 -0.09 3.51 -10.46 0 0.1 -4.03 0.3 -3.98 0.5 -3.93 0.69 -3.86 0.88 -3.8 1.06 -3.73 1.23 -3.65 1.41 -3.57 1.57 -3.48 1.73 -3.38 1.89 -3.29 2.04 -3.18 2.19 -3.08 2.33 -2.96 2.46 -2.85 2.6 -2.72 2.72 -2.6 2.85 -2.46 2.96 -2.33 3.08 -2.19 3.18 -2.04 3.29 -1.89 3.39 -1.73 3.48 -1.57 3.57 -1.41 3.65 -1.23 3.73 -1.06 3.8 -0.88 3.86 -0.69 3.93 -0.5 3.98 -0.3 4.03 -0.1 0 0z"/>
   </g>
  </g>
 </g>
</svg>
