<?xml version="1.0" encoding="UTF-8"?>
<!DOCTYPE svg PUBLIC "-//W3C//DTD SVG 1.1//EN" "http://www.w3.org/Graphics/SVG/1.1/DTD/svg11.dtd">
<!-- Creator: CorelDRAW 2020 (64-Bit) -->
<svg xmlns="http://www.w3.org/2000/svg" xml:space="preserve" width="10.5833mm" height="10.5833mm" version="1.1" shape-rendering="geometricPrecision" text-rendering="geometricPrecision" image-rendering="optimizeQuality" fill-rule="evenodd" clip-rule="evenodd"
viewBox="0 0 26.39 26.39"
 xmlns:xlink="http://www.w3.org/1999/xlink"
 xmlns:xodm="http://www.corel.com/coreldraw/odm/2003">
 <g id="Слой_x0020_1">
  <metadata id="CorelCorpID_0Corel-Layer"/>
  <path fill="#F25A18" fill-rule="nonzero" d="M26.35 10.02c-0.08,-0.25 -0.3,-0.43 -0.56,-0.47l-8.27 -1.26 -3.7 -7.89c-0.11,-0.24 -0.36,-0.4 -0.63,-0.4 -0.27,0 -0.51,0.16 -0.63,0.4l-3.71 7.89 -8.27 1.26c-0.34,0.05 -0.59,0.34 -0.59,0.69 0,0.18 0.07,0.35 0.2,0.48l6.01 6.16 -1.42 8.7c-0.01,0.04 -0.01,0.07 -0.01,0.11 0,0.38 0.31,0.69 0.69,0.69 0.12,0 0.23,-0.03 0.34,-0.09l7.39 -4.08 7.39 4.08c0.1,0.06 0.22,0.09 0.33,0.09 0,0 0,0 0,0 0,0 0,0 0,0 0.38,0 0.69,-0.31 0.69,-0.69 0,-0.04 -0,-0.08 -0.01,-0.11l-1.42 -8.7 6.01 -6.16c0.13,-0.13 0.2,-0.3 0.2,-0.48 0,-0.07 -0.01,-0.15 -0.04,-0.22l0 0zm-7.57 6.85c-0.13,0.13 -0.2,0.3 -0.2,0.48 0,0.04 0,0.08 0.01,0.11l1.25 7.63 -6.48 -3.58c-0.1,-0.06 -0.22,-0.09 -0.34,-0.09 -0.12,0 -0.23,0.03 -0.34,0.09l-6.48 3.58 1.25 -7.63c0.01,-0.04 0.01,-0.07 0.01,-0.11 0,-0.18 -0.07,-0.36 -0.2,-0.48l-5.31 -5.44 7.3 -1.12c0.23,-0.03 0.43,-0.18 0.52,-0.39l3.23 -6.89 3.23 6.89c0.1,0.21 0.29,0.36 0.52,0.39l7.3 1.12 -5.31 5.44z"/>
  <path fill="#F25A18" stroke="#F25A18" stroke-width="0.5" stroke-miterlimit="22.9256" d="M19.85 25.1l-1.25 -7.64 0.19 -0.6 5.31 -5.44 -7.3 -1.12c-0.23,-0.03 -0.43,-0.18 -0.52,-0.39l-3.23 -6.89 -3.23 6.89c-0.1,0.21 -0.29,0.36 -0.52,0.39l-7.3 1.12 5.31 5.44c0.13,0.13 0.2,0.3 0.2,0.48l-1.25 7.75 6.48 -3.58 0.67 0 6.48 3.58z"/>
 </g>
</svg>
